<mxfile host="app.diagrams.net" agent="Mozilla/5.0 (Windows NT 10.0; Win64; x64) AppleWebKit/537.36 (KHTML, like Gecko) Chrome/129.0.0.0 Safari/537.36" version="24.8.6">
  <diagram name="PÃ gina-1" id="yPYc4xqNAN8-Pp4fWQqu">
    <mxGraphModel dx="2587" dy="2513" grid="1" gridSize="10" guides="1" tooltips="1" connect="1" arrows="1" fold="1" page="1" pageScale="1" pageWidth="827" pageHeight="1169" math="0" shadow="0">
      <root>
        <mxCell id="0" />
        <mxCell id="1" parent="0" />
        <mxCell id="iRa1DavyCTfkShi3LgE0-8" style="edgeStyle=orthogonalEdgeStyle;rounded=0;orthogonalLoop=1;jettySize=auto;html=1;" edge="1" parent="1" source="iRa1DavyCTfkShi3LgE0-1" target="iRa1DavyCTfkShi3LgE0-6">
          <mxGeometry relative="1" as="geometry">
            <Array as="points">
              <mxPoint x="398" y="90" />
              <mxPoint x="668" y="90" />
            </Array>
          </mxGeometry>
        </mxCell>
        <mxCell id="iRa1DavyCTfkShi3LgE0-9" style="edgeStyle=orthogonalEdgeStyle;rounded=0;orthogonalLoop=1;jettySize=auto;html=1;" edge="1" parent="1" source="iRa1DavyCTfkShi3LgE0-1" target="iRa1DavyCTfkShi3LgE0-7">
          <mxGeometry relative="1" as="geometry">
            <Array as="points">
              <mxPoint x="398" y="90" />
              <mxPoint x="1040" y="90" />
            </Array>
          </mxGeometry>
        </mxCell>
        <mxCell id="iRa1DavyCTfkShi3LgE0-10" style="edgeStyle=orthogonalEdgeStyle;rounded=0;orthogonalLoop=1;jettySize=auto;html=1;" edge="1" parent="1" source="iRa1DavyCTfkShi3LgE0-1" target="iRa1DavyCTfkShi3LgE0-5">
          <mxGeometry relative="1" as="geometry">
            <Array as="points">
              <mxPoint x="398" y="90" />
              <mxPoint x="145" y="90" />
            </Array>
          </mxGeometry>
        </mxCell>
        <mxCell id="iRa1DavyCTfkShi3LgE0-11" style="edgeStyle=orthogonalEdgeStyle;rounded=0;orthogonalLoop=1;jettySize=auto;html=1;" edge="1" parent="1" source="iRa1DavyCTfkShi3LgE0-1" target="iRa1DavyCTfkShi3LgE0-3">
          <mxGeometry relative="1" as="geometry">
            <Array as="points">
              <mxPoint x="398" y="90" />
              <mxPoint x="-190" y="90" />
            </Array>
          </mxGeometry>
        </mxCell>
        <mxCell id="iRa1DavyCTfkShi3LgE0-1" value="MAIN" style="rounded=1;whiteSpace=wrap;html=1;" vertex="1" parent="1">
          <mxGeometry x="360" y="30" width="76" height="40" as="geometry" />
        </mxCell>
        <mxCell id="iRa1DavyCTfkShi3LgE0-13" style="edgeStyle=orthogonalEdgeStyle;rounded=0;orthogonalLoop=1;jettySize=auto;html=1;" edge="1" parent="1" source="iRa1DavyCTfkShi3LgE0-3" target="iRa1DavyCTfkShi3LgE0-12">
          <mxGeometry relative="1" as="geometry" />
        </mxCell>
        <mxCell id="iRa1DavyCTfkShi3LgE0-3" value="Detectar text" style="rounded=1;whiteSpace=wrap;html=1;" vertex="1" parent="1">
          <mxGeometry x="-228" y="120" width="76" height="40" as="geometry" />
        </mxCell>
        <mxCell id="iRa1DavyCTfkShi3LgE0-16" style="edgeStyle=orthogonalEdgeStyle;rounded=0;orthogonalLoop=1;jettySize=auto;html=1;" edge="1" parent="1" source="iRa1DavyCTfkShi3LgE0-5" target="iRa1DavyCTfkShi3LgE0-15">
          <mxGeometry relative="1" as="geometry" />
        </mxCell>
        <mxCell id="iRa1DavyCTfkShi3LgE0-5" value="Comprobar text" style="rounded=1;whiteSpace=wrap;html=1;" vertex="1" parent="1">
          <mxGeometry x="100" y="120" width="90" height="40" as="geometry" />
        </mxCell>
        <mxCell id="iRa1DavyCTfkShi3LgE0-26" style="edgeStyle=orthogonalEdgeStyle;rounded=0;orthogonalLoop=1;jettySize=auto;html=1;" edge="1" parent="1" source="iRa1DavyCTfkShi3LgE0-6" target="iRa1DavyCTfkShi3LgE0-23">
          <mxGeometry relative="1" as="geometry">
            <Array as="points">
              <mxPoint x="667.5" y="185" />
              <mxPoint x="825.5" y="185" />
            </Array>
          </mxGeometry>
        </mxCell>
        <mxCell id="iRa1DavyCTfkShi3LgE0-27" style="edgeStyle=orthogonalEdgeStyle;rounded=0;orthogonalLoop=1;jettySize=auto;html=1;" edge="1" parent="1" source="iRa1DavyCTfkShi3LgE0-6" target="iRa1DavyCTfkShi3LgE0-25">
          <mxGeometry relative="1" as="geometry" />
        </mxCell>
        <mxCell id="iRa1DavyCTfkShi3LgE0-28" style="edgeStyle=orthogonalEdgeStyle;rounded=0;orthogonalLoop=1;jettySize=auto;html=1;" edge="1" parent="1" source="iRa1DavyCTfkShi3LgE0-6" target="iRa1DavyCTfkShi3LgE0-24">
          <mxGeometry relative="1" as="geometry">
            <Array as="points">
              <mxPoint x="667.5" y="185" />
              <mxPoint x="511.5" y="185" />
            </Array>
          </mxGeometry>
        </mxCell>
        <mxCell id="iRa1DavyCTfkShi3LgE0-6" value="Mostrar errors" style="rounded=1;whiteSpace=wrap;html=1;" vertex="1" parent="1">
          <mxGeometry x="622.5" y="125" width="90" height="40" as="geometry" />
        </mxCell>
        <mxCell id="iRa1DavyCTfkShi3LgE0-30" style="edgeStyle=orthogonalEdgeStyle;rounded=0;orthogonalLoop=1;jettySize=auto;html=1;" edge="1" parent="1" source="iRa1DavyCTfkShi3LgE0-7" target="iRa1DavyCTfkShi3LgE0-29">
          <mxGeometry relative="1" as="geometry" />
        </mxCell>
        <mxCell id="iRa1DavyCTfkShi3LgE0-7" value="Crear combinacio de 5 lletres" style="rounded=1;whiteSpace=wrap;html=1;" vertex="1" parent="1">
          <mxGeometry x="990" y="120" width="100" height="40" as="geometry" />
        </mxCell>
        <mxCell id="iRa1DavyCTfkShi3LgE0-12" value="Guardar resultat" style="rounded=1;whiteSpace=wrap;html=1;" vertex="1" parent="1">
          <mxGeometry x="-240" y="220" width="100" height="40" as="geometry" />
        </mxCell>
        <mxCell id="iRa1DavyCTfkShi3LgE0-19" style="edgeStyle=orthogonalEdgeStyle;rounded=0;orthogonalLoop=1;jettySize=auto;html=1;" edge="1" parent="1" source="iRa1DavyCTfkShi3LgE0-15" target="iRa1DavyCTfkShi3LgE0-18">
          <mxGeometry relative="1" as="geometry">
            <Array as="points">
              <mxPoint x="145" y="280" />
              <mxPoint x="280" y="280" />
            </Array>
          </mxGeometry>
        </mxCell>
        <mxCell id="iRa1DavyCTfkShi3LgE0-20" style="edgeStyle=orthogonalEdgeStyle;rounded=0;orthogonalLoop=1;jettySize=auto;html=1;" edge="1" parent="1" source="iRa1DavyCTfkShi3LgE0-15" target="iRa1DavyCTfkShi3LgE0-17">
          <mxGeometry relative="1" as="geometry">
            <Array as="points">
              <mxPoint x="145" y="280" />
              <mxPoint x="10" y="280" />
            </Array>
          </mxGeometry>
        </mxCell>
        <mxCell id="iRa1DavyCTfkShi3LgE0-22" style="edgeStyle=orthogonalEdgeStyle;rounded=0;orthogonalLoop=1;jettySize=auto;html=1;" edge="1" parent="1" source="iRa1DavyCTfkShi3LgE0-15" target="iRa1DavyCTfkShi3LgE0-21">
          <mxGeometry relative="1" as="geometry" />
        </mxCell>
        <mxCell id="iRa1DavyCTfkShi3LgE0-15" value="Comparar resultat amb text" style="rounded=1;whiteSpace=wrap;html=1;" vertex="1" parent="1">
          <mxGeometry x="95" y="220" width="100" height="40" as="geometry" />
        </mxCell>
        <mxCell id="iRa1DavyCTfkShi3LgE0-17" value="Indicar si la lletra es incorrecte" style="rounded=1;whiteSpace=wrap;html=1;" vertex="1" parent="1">
          <mxGeometry x="-40" y="310" width="100" height="40" as="geometry" />
        </mxCell>
        <mxCell id="iRa1DavyCTfkShi3LgE0-18" value="Indicar si la lletra es semi-correcte" style="rounded=1;whiteSpace=wrap;html=1;" vertex="1" parent="1">
          <mxGeometry x="230" y="310" width="100" height="40" as="geometry" />
        </mxCell>
        <mxCell id="iRa1DavyCTfkShi3LgE0-21" value="Indicar si la lletra es correcte" style="rounded=1;whiteSpace=wrap;html=1;" vertex="1" parent="1">
          <mxGeometry x="95" y="310" width="100" height="40" as="geometry" />
        </mxCell>
        <mxCell id="iRa1DavyCTfkShi3LgE0-23" value="Si hi ha error, mostra en la posicio un &quot;&lt;font style=&quot;font-size: 18px;&quot;&gt;.&lt;/font&gt;&quot;" style="rounded=1;whiteSpace=wrap;html=1;" vertex="1" parent="1">
          <mxGeometry x="762.5" y="215" width="125" height="50" as="geometry" />
        </mxCell>
        <mxCell id="iRa1DavyCTfkShi3LgE0-24" value="Si es correcte, mostra en la posicio un &quot;&lt;span style=&quot;font-size: 11px;&quot;&gt;O&lt;/span&gt;&quot;" style="rounded=1;whiteSpace=wrap;html=1;" vertex="1" parent="1">
          <mxGeometry x="448.5" y="215" width="125" height="50" as="geometry" />
        </mxCell>
        <mxCell id="iRa1DavyCTfkShi3LgE0-25" value="Si esta mal posicionat, mostra en la posicio una &quot;&lt;span style=&quot;font-size: 11px;&quot;&gt;X&lt;/span&gt;&quot;" style="rounded=1;whiteSpace=wrap;html=1;" vertex="1" parent="1">
          <mxGeometry x="587.5" y="215" width="160" height="50" as="geometry" />
        </mxCell>
        <mxCell id="iRa1DavyCTfkShi3LgE0-33" style="edgeStyle=orthogonalEdgeStyle;rounded=0;orthogonalLoop=1;jettySize=auto;html=1;" edge="1" parent="1" source="iRa1DavyCTfkShi3LgE0-29" target="iRa1DavyCTfkShi3LgE0-32">
          <mxGeometry relative="1" as="geometry" />
        </mxCell>
        <mxCell id="iRa1DavyCTfkShi3LgE0-34" style="edgeStyle=orthogonalEdgeStyle;rounded=0;orthogonalLoop=1;jettySize=auto;html=1;" edge="1" parent="1" source="iRa1DavyCTfkShi3LgE0-29" target="iRa1DavyCTfkShi3LgE0-31">
          <mxGeometry relative="1" as="geometry" />
        </mxCell>
        <mxCell id="iRa1DavyCTfkShi3LgE0-29" value="Crear un llistat de paraules de 5 lletres o una llista de lletres." style="rounded=1;whiteSpace=wrap;html=1;" vertex="1" parent="1">
          <mxGeometry x="968.75" y="215" width="142.5" height="50" as="geometry" />
        </mxCell>
        <mxCell id="iRa1DavyCTfkShi3LgE0-31" value="Agafa una frase random de la llista" style="rounded=1;whiteSpace=wrap;html=1;" vertex="1" parent="1">
          <mxGeometry x="887.5" y="330" width="102.5" height="50" as="geometry" />
        </mxCell>
        <mxCell id="iRa1DavyCTfkShi3LgE0-32" value="Crea una paraula agafant 5 lletres random" style="rounded=1;whiteSpace=wrap;html=1;" vertex="1" parent="1">
          <mxGeometry x="1090" y="330" width="102.5" height="50" as="geometry" />
        </mxCell>
        <mxCell id="iRa1DavyCTfkShi3LgE0-38" style="edgeStyle=orthogonalEdgeStyle;rounded=0;orthogonalLoop=1;jettySize=auto;html=1;" edge="1" parent="1" source="iRa1DavyCTfkShi3LgE0-36" target="iRa1DavyCTfkShi3LgE0-37">
          <mxGeometry relative="1" as="geometry" />
        </mxCell>
        <mxCell id="iRa1DavyCTfkShi3LgE0-36" value="Inici" style="strokeWidth=2;html=1;shape=mxgraph.flowchart.terminator;whiteSpace=wrap;" vertex="1" parent="1">
          <mxGeometry x="320" y="480" width="80" height="40" as="geometry" />
        </mxCell>
        <mxCell id="iRa1DavyCTfkShi3LgE0-40" style="edgeStyle=orthogonalEdgeStyle;rounded=0;orthogonalLoop=1;jettySize=auto;html=1;" edge="1" parent="1" source="iRa1DavyCTfkShi3LgE0-37" target="iRa1DavyCTfkShi3LgE0-39">
          <mxGeometry relative="1" as="geometry">
            <Array as="points">
              <mxPoint x="360" y="660" />
              <mxPoint x="360" y="660" />
            </Array>
          </mxGeometry>
        </mxCell>
        <mxCell id="iRa1DavyCTfkShi3LgE0-37" value="Creacio de variables" style="rounded=1;whiteSpace=wrap;html=1;absoluteArcSize=1;arcSize=14;strokeWidth=2;" vertex="1" parent="1">
          <mxGeometry x="320" y="580" width="80" height="50" as="geometry" />
        </mxCell>
        <mxCell id="iRa1DavyCTfkShi3LgE0-44" style="edgeStyle=orthogonalEdgeStyle;rounded=0;orthogonalLoop=1;jettySize=auto;html=1;" edge="1" parent="1" source="iRa1DavyCTfkShi3LgE0-39" target="iRa1DavyCTfkShi3LgE0-41">
          <mxGeometry relative="1" as="geometry" />
        </mxCell>
        <mxCell id="iRa1DavyCTfkShi3LgE0-39" value="Mostrar per pantalla" style="shape=parallelogram;html=1;strokeWidth=2;perimeter=parallelogramPerimeter;whiteSpace=wrap;rounded=1;arcSize=12;size=0.23;" vertex="1" parent="1">
          <mxGeometry x="310" y="690" width="100" height="40" as="geometry" />
        </mxCell>
        <mxCell id="iRa1DavyCTfkShi3LgE0-45" style="edgeStyle=orthogonalEdgeStyle;rounded=0;orthogonalLoop=1;jettySize=auto;html=1;" edge="1" parent="1" source="iRa1DavyCTfkShi3LgE0-41">
          <mxGeometry relative="1" as="geometry">
            <mxPoint x="360" y="650" as="targetPoint" />
            <Array as="points">
              <mxPoint x="480" y="820" />
              <mxPoint x="480" y="650" />
            </Array>
          </mxGeometry>
        </mxCell>
        <mxCell id="iRa1DavyCTfkShi3LgE0-46" value="NO" style="edgeLabel;html=1;align=center;verticalAlign=middle;resizable=0;points=[];" vertex="1" connectable="0" parent="iRa1DavyCTfkShi3LgE0-45">
          <mxGeometry x="-0.1078" y="1" relative="1" as="geometry">
            <mxPoint y="4" as="offset" />
          </mxGeometry>
        </mxCell>
        <mxCell id="iRa1DavyCTfkShi3LgE0-48" style="edgeStyle=orthogonalEdgeStyle;rounded=0;orthogonalLoop=1;jettySize=auto;html=1;" edge="1" parent="1" source="iRa1DavyCTfkShi3LgE0-41" target="iRa1DavyCTfkShi3LgE0-47">
          <mxGeometry relative="1" as="geometry" />
        </mxCell>
        <mxCell id="iRa1DavyCTfkShi3LgE0-49" value="SI" style="edgeLabel;html=1;align=center;verticalAlign=middle;resizable=0;points=[];" vertex="1" connectable="0" parent="iRa1DavyCTfkShi3LgE0-48">
          <mxGeometry x="-0.1309" y="-1" relative="1" as="geometry">
            <mxPoint y="1" as="offset" />
          </mxGeometry>
        </mxCell>
        <mxCell id="iRa1DavyCTfkShi3LgE0-41" value="L&#39;ha encertat?" style="strokeWidth=2;html=1;shape=mxgraph.flowchart.decision;whiteSpace=wrap;" vertex="1" parent="1">
          <mxGeometry x="310" y="790" width="100" height="60" as="geometry" />
        </mxCell>
        <mxCell id="iRa1DavyCTfkShi3LgE0-47" value="Fi" style="strokeWidth=2;html=1;shape=mxgraph.flowchart.terminator;whiteSpace=wrap;" vertex="1" parent="1">
          <mxGeometry x="320" y="910" width="80" height="40" as="geometry" />
        </mxCell>
        <mxCell id="iRa1DavyCTfkShi3LgE0-50" value="" style="shape=curlyBracket;whiteSpace=wrap;html=1;rounded=1;flipH=1;labelPosition=right;verticalLabelPosition=middle;align=left;verticalAlign=middle;" vertex="1" parent="1">
          <mxGeometry x="290" y="660" width="20" height="100" as="geometry" />
        </mxCell>
        <mxCell id="iRa1DavyCTfkShi3LgE0-63" value="crearCombinacio();" style="text;html=1;align=center;verticalAlign=middle;whiteSpace=wrap;rounded=0;" vertex="1" parent="1">
          <mxGeometry x="212" y="665" width="60" height="30" as="geometry" />
        </mxCell>
        <mxCell id="iRa1DavyCTfkShi3LgE0-65" value="detectarText();" style="text;html=1;align=center;verticalAlign=middle;whiteSpace=wrap;rounded=0;" vertex="1" parent="1">
          <mxGeometry x="200" y="685" width="60" height="30" as="geometry" />
        </mxCell>
        <mxCell id="iRa1DavyCTfkShi3LgE0-66" value="comprobarText();" style="text;html=1;align=center;verticalAlign=middle;whiteSpace=wrap;rounded=0;" vertex="1" parent="1">
          <mxGeometry x="208" y="705" width="60" height="30" as="geometry" />
        </mxCell>
        <mxCell id="iRa1DavyCTfkShi3LgE0-67" value="mostrarError();" style="text;html=1;align=center;verticalAlign=middle;whiteSpace=wrap;rounded=0;" vertex="1" parent="1">
          <mxGeometry x="202" y="725" width="60" height="30" as="geometry" />
        </mxCell>
        <mxCell id="iRa1DavyCTfkShi3LgE0-68" value="" style="shape=crossbar;whiteSpace=wrap;html=1;rounded=1;direction=south;" vertex="1" parent="1">
          <mxGeometry x="170" y="660" width="20" height="100" as="geometry" />
        </mxCell>
        <mxCell id="iRa1DavyCTfkShi3LgE0-70" value="Diagrama de flux" style="rounded=0;whiteSpace=wrap;html=1;" vertex="1" parent="1">
          <mxGeometry x="272.5" y="430" width="120" height="30" as="geometry" />
        </mxCell>
        <mxCell id="iRa1DavyCTfkShi3LgE0-71" value="" style="whiteSpace=wrap;html=1;aspect=fixed;fillColor=none;" vertex="1" parent="1">
          <mxGeometry x="77.5" y="460" width="510" height="510" as="geometry" />
        </mxCell>
      </root>
    </mxGraphModel>
  </diagram>
</mxfile>
